HIERARCHY
ROOT SpineBase
{
  OFFSET 0.000000 0.000000 0.000000
  CHANNELS 6 Xposition Yposition Zposition Zrotation Xrotation Yrotation
  JOINT SpineMid
  {
    OFFSET -0.000000 32.803437 0.000000
    CHANNELS 3 Zrotation Xrotation Yrotation
    JOINT SpineShoulder
    {
      OFFSET -0.160937 24.291264 -0.896644
      CHANNELS 3 Zrotation Xrotation Yrotation
      JOINT Neck
      {
        OFFSET 0.009742 7.993244 -0.590492
        CHANNELS 3 Zrotation Xrotation Yrotation
        JOINT Head
        {
          OFFSET 4.683460 8.861811 5.883113
          CHANNELS 3 Zrotation Xrotation Yrotation
          End Site
          {
            OFFSET 0 0 0
          }
        }
      }
      JOINT ShoulderLeft
      {
        OFFSET -2.112571 -5.820861 -15.002946
        CHANNELS 3 Zrotation Xrotation Yrotation
        JOINT ElbowLeft
        {
          OFFSET 5.889472 -24.718564 -4.980359
          CHANNELS 3 Zrotation Xrotation Yrotation
          JOINT WristLeft
          {
            OFFSET 7.818546 -18.404121 8.643609
            CHANNELS 3 Zrotation Xrotation Yrotation
            JOINT HandLeft
            {
              OFFSET 0.130092 -6.683662 5.462155
              CHANNELS 3 Zrotation Xrotation Yrotation
              JOINT HandTipLeft
              {
                OFFSET 2.535989 -5.275932 2.495614
                CHANNELS 3 Zrotation Xrotation Yrotation
                End Site
                {
                  OFFSET 0 0 0
                }
              }
              JOINT ThumbLeft
              {
                OFFSET -3.662247 -0.917487 -2.577004
                CHANNELS 3 Zrotation Xrotation Yrotation
                End Site
                {
                  OFFSET 0 0 0
                }
              }
            }
          }
        }
      }
      JOINT ShoulderRight
      {
        OFFSET 3.449405 -11.919206 -20.188653
        CHANNELS 3 Zrotation Xrotation Yrotation
        JOINT ElbowRight
        {
          OFFSET 6.470666 -24.140055 2.552876
          CHANNELS 3 Zrotation Xrotation Yrotation
          JOINT WristRight
          {
            OFFSET 0.429439 -18.764561 14.168081
            CHANNELS 3 Zrotation Xrotation Yrotation
            JOINT HandRight
            {
              OFFSET 1.493840 -4.853690 0.188900
              CHANNELS 3 Zrotation Xrotation Yrotation
              JOINT HandTipRight
              {
                OFFSET 0.837315 -4.081854 2.703863
                CHANNELS 3 Zrotation Xrotation Yrotation
                End Site
                {
                  OFFSET 0 0 0
                }
              }
              JOINT ThumbRight
              {
                OFFSET 3.078919 3.195065 -0.910724
                CHANNELS 3 Zrotation Xrotation Yrotation
                End Site
                {
                  OFFSET 0 0 0
                }
              }
            }
          }
        }
      }
    }
  }
  JOINT HipLeft
  {
    OFFSET -3.306615 1.461066 -7.588579
    CHANNELS 3 Zrotation Xrotation Yrotation
    JOINT KneeLeft
    {
      OFFSET -3.265409 -36.550132 -3.315333
      CHANNELS 3 Zrotation Xrotation Yrotation
      JOINT AnkleLeft
      {
        OFFSET -8.947215 -35.280388 0.827972
        CHANNELS 3 Zrotation Xrotation Yrotation
        JOINT FootLeft
        {
          OFFSET -6.842402 -3.086210 -11.100834
          CHANNELS 3 Zrotation Xrotation Yrotation
          End Site
          {
            OFFSET 0 0 0
          }
        }
      }
    }
  }
  JOINT HipRight
  {
    OFFSET 3.645184 0.483998 0.041340
    CHANNELS 3 Zrotation Xrotation Yrotation
    JOINT KneeRight
    {
      OFFSET -18.086215 -41.470392 10.330596
      CHANNELS 3 Zrotation Xrotation Yrotation
      JOINT AnkleRight
      {
        OFFSET 2.283542 -39.173654 -13.407912
        CHANNELS 3 Zrotation Xrotation Yrotation
        JOINT FootRight
        {
          OFFSET -3.365998 6.303642 -11.957956
          CHANNELS 3 Zrotation Xrotation Yrotation
          End Site
          {
            OFFSET 0 0 0
          }
        }
      }
    }
  }
}
MOTION
Frames: 16
Frame Time: 0.033333
-14.271074 82.361079 278.039848 0.148089 -0.033084 -43.414028 -0.130310 -0.077744 43.413982 -0.210987 -0.792355 -0.016071 8.274889 -5.297807 -1.953715 0.000000 0.000000 0.000000 0.210785 0.792409 0.013155 -3.558025 1.960091 -0.794782 3.823596 4.185789 1.320142 4.272908 -7.638454 1.537320 0.000000 0.000000 0.000000 0.000000 0.000000 0.000000 -6.046618 1.913137 -0.203780 6.261863 -1.087111 0.424281 11.289208 2.750905 0.986552 6.090047 10.336168 12.047425 0.000000 0.000000 0.000000 0.000000 0.000000 0.000000 -0.130310 -0.077744 43.413982 -0.000000 0.000000 0.000000 -0.329479 -0.270541 1.787787 0.000000 0.000000 0.000000 1.654202 0.275067 44.220411 -1.888819 -0.064642 -0.735552 2.955695 2.800611 5.812551 0.000000 0.000000 0.000000
-14.193663 82.381893 278.035863 0.158954 -0.164029 -39.170539 -0.226838 0.026766 39.170820 -0.215162 -0.896148 -0.016476 8.747157 -5.529607 -2.078551 0.000000 0.000000 0.000000 0.214931 0.896204 0.013112 -4.443016 3.100939 -0.669264 4.360962 2.433276 0.986989 4.124826 -4.305585 2.730957 0.000000 0.000000 0.000000 0.000000 0.000000 0.000000 -6.123703 2.002521 -0.203688 5.783796 -1.817691 -0.018487 11.304677 7.735213 2.142780 4.256032 14.397600 11.235470 0.000000 0.000000 0.000000 0.000000 0.000000 0.000000 -0.226838 0.026766 39.170820 -0.000000 0.000000 0.000000 -0.277411 -0.261141 1.580539 0.000000 0.000000 0.000000 1.697987 -0.105682 40.100437 -1.761199 0.229307 -0.849959 3.883335 1.129329 6.455986 0.000000 0.000000 0.000000
-14.155137 82.398633 277.977859 0.110212 -0.224163 -34.578336 -0.217963 0.122015 34.578784 -0.254464 -0.954140 -0.019742 8.079444 -5.233508 -1.749957 0.000000 0.000000 0.000000 0.254170 0.954218 0.015507 -5.389904 4.757112 -0.298924 4.460050 -1.484189 -0.020833 4.538986 0.502448 4.305709 0.000000 0.000000 0.000000 0.000000 0.000000 0.000000 -6.145508 2.064895 -0.198205 5.798824 -0.553330 -0.009106 6.455300 8.813678 3.083558 6.072816 13.430594 9.731767 0.000000 0.000000 0.000000 0.000000 0.000000 0.000000 -1.005387 0.841867 34.514344 0.241022 -1.039272 0.073249 -0.256997 -0.250631 1.483719 0.000000 0.000000 0.000000 1.462972 -0.468823 35.474136 -1.470044 0.314798 -0.791135 4.184181 0.378592 6.386398 0.000000 0.000000 0.000000
-14.132215 82.410045 277.886266 0.027670 -0.255732 -29.484329 -0.149955 0.208993 29.484664 -0.345390 -1.021653 -0.027332 7.015633 -4.717756 -1.242285 0.000000 0.000000 0.000000 -0.333053 1.513356 0.290040 -5.550263 6.126320 -0.072761 4.337731 -6.302863 -1.298110 1.170959 8.406773 5.706567 0.000000 0.000000 0.000000 0.000000 0.000000 0.000000 -6.112090 2.137444 -0.187610 6.617137 0.093884 0.602388 2.729025 7.152336 2.362285 6.014481 6.594717 6.764631 0.000000 0.000000 0.000000 0.000000 0.000000 0.000000 -1.214480 1.561684 29.372934 0.264443 -1.700810 0.132106 -0.259818 -0.242227 1.474755 0.000000 0.000000 0.000000 1.459724 -0.757038 30.435263 -1.599426 0.130351 -0.776175 3.940544 1.745650 5.983655 0.000000 0.000000 0.000000
-14.171069 82.297065 277.715447 -0.165156 -0.193247 -26.161980 -0.485971 -0.407893 26.129672 0.325318 -0.716067 -0.005096 5.483075 -3.798234 -0.655643 0.000000 0.000000 0.000000 -0.526234 1.724446 0.408137 -6.121932 7.894040 0.405901 3.382249 -11.402507 -3.421851 -1.076078 17.010726 9.211227 0.000000 0.000000 0.000000 0.000000 0.000000 0.000000 -6.049103 2.183393 -0.177568 8.324559 -1.031008 1.857892 3.395719 2.067864 -0.601423 15.019019 1.095475 13.148056 0.000000 0.000000 0.000000 0.000000 0.000000 0.000000 -0.899054 1.977981 26.012780 0.105395 -1.978110 0.169281 -0.277550 -0.206389 1.456943 0.000000 0.000000 0.000000 1.429679 -1.047851 27.102707 -1.431702 0.158354 -0.735920 3.630497 2.791332 5.756311 0.000000 0.000000 0.000000
-14.320057 82.085818 277.450895 -0.501310 -0.009094 -24.990720 -0.307994 -0.421853 24.951361 0.278798 -0.730295 -0.016869 4.249003 -3.129567 -0.084059 0.000000 0.000000 0.000000 -0.761226 1.856894 0.576063 -6.110212 9.445658 0.959663 1.556055 -17.054908 -6.160020 -2.840083 24.044206 12.554923 0.000000 0.000000 0.000000 0.000000 0.000000 0.000000 -5.861925 2.123539 -0.169986 9.871071 -1.099964 3.025993 2.943871 -7.338236 -4.051947 12.880509 -1.347451 11.619651 0.000000 0.000000 0.000000 0.000000 0.000000 0.000000 -0.149040 2.037521 24.811690 -0.218416 -1.901291 0.186314 -0.303229 -0.121763 1.357489 0.000000 0.000000 0.000000 1.189773 -1.044238 25.663188 -1.197512 -0.342112 -0.398166 2.159499 6.120641 4.288092 0.000000 0.000000 0.000000
-14.506643 81.836697 277.158916 -0.864313 0.228104 -23.301530 -0.118624 -0.464740 23.255602 0.185778 -0.721727 -0.033334 3.060413 -2.575483 0.548634 0.000000 0.000000 0.000000 -1.041096 1.874980 0.757128 -5.494564 10.575005 1.479488 -0.095402 -21.818412 -8.276224 -6.655206 30.996303 16.250559 0.000000 0.000000 0.000000 0.000000 0.000000 0.000000 -5.594725 2.016821 -0.161273 11.167205 -0.384536 4.019268 -0.691480 -17.934042 -7.954668 3.152702 2.194449 6.545972 0.000000 0.000000 0.000000 0.000000 0.000000 0.000000 0.684659 2.132356 23.080078 -0.600772 -1.918002 0.216036 -0.326478 -0.018437 1.208164 0.000000 0.000000 0.000000 0.979301 -1.237495 23.753065 -0.723679 -0.469091 -0.146042 0.545366 9.666339 3.140210 0.000000 0.000000 0.000000
-14.708938 81.582591 276.865723 -1.250298 0.497933 -26.307055 0.016735 -0.519849 26.252515 0.055046 -0.647087 -0.057462 1.984888 -2.025807 1.144728 0.000000 0.000000 0.000000 -1.355714 1.713070 0.972772 -4.252042 11.195647 1.867110 -1.978207 -24.612697 -10.145476 -7.816848 34.839350 18.857437 0.000000 0.000000 0.000000 0.000000 0.000000 0.000000 -5.173700 1.774485 -0.156041 12.150939 0.873707 4.775660 -7.249088 -26.809959 -12.583550 -9.600383 9.974334 2.970418 0.000000 0.000000 0.000000 0.000000 0.000000 0.000000 1.548818 1.713105 26.106244 -0.892775 -1.350201 0.191166 -0.321973 0.135794 0.848508 0.000000 0.000000 0.000000 0.762013 -1.183582 26.425957 -0.005845 -0.505854 0.169741 -1.426385 13.368979 2.002518 0.000000 0.000000 0.000000
-14.886207 81.412421 276.644824 -1.607696 0.703993 -30.803068 -0.072329 -0.460255 30.737732 -0.060664 -0.513283 -0.086006 1.307983 -1.730375 1.589707 0.000000 0.000000 0.000000 -1.778836 1.463484 1.265740 -2.140514 10.934737 2.026505 -3.061881 -25.206585 -10.557899 -8.039288 35.678642 18.903400 0.000000 0.000000 0.000000 0.000000 0.000000 0.000000 -4.628780 1.326668 -0.160620 12.768545 2.449995 5.252007 -15.832555 -34.291920 -18.510142 -25.416611 19.703209 3.604178 0.000000 0.000000 0.000000 0.000000 0.000000 0.000000 2.424933 1.141963 30.665727 -0.594322 -1.229603 0.348652 -0.459789 0.786995 -0.207043 0.000000 0.000000 0.000000 0.420186 -1.049203 30.537483 0.833053 -0.513244 0.528261 -2.921395 15.772374 1.144104 0.000000 0.000000 0.000000
-15.116961 81.109151 276.379279 -2.126975 1.068386 -37.161178 -0.330643 -0.532176 37.075292 -0.345772 -0.313644 -0.143031 0.272109 -0.557338 2.056748 0.000000 0.000000 0.000000 -2.016647 1.108791 1.692880 0.680657 9.797855 1.875003 -2.966214 -23.436623 -9.354527 -3.455948 32.498848 15.587881 0.000000 0.000000 0.000000 0.000000 0.000000 0.000000 -3.550343 0.632325 -0.142654 12.946833 4.138086 5.389531 -29.187107 -34.167181 -24.401773 -23.661616 23.879754 2.350668 0.000000 0.000000 0.000000 0.000000 0.000000 0.000000 3.933185 0.435931 37.130567 -0.463320 -0.130484 0.330345 -1.159709 1.860237 -0.659252 0.000000 0.000000 0.000000 0.330125 -1.000932 36.521995 2.469163 -0.043714 0.641148 -4.625304 15.771672 0.471371 0.000000 0.000000 0.000000
-15.304073 80.889873 276.127320 -2.621229 1.517018 -41.772650 -0.458597 -0.642380 41.674257 -0.176126 -0.248519 -0.158579 1.540659 -0.921436 1.510658 0.000000 0.000000 0.000000 -2.927823 0.981999 2.119329 2.676183 9.491555 1.803765 -2.621876 -23.119936 -8.768049 -0.930304 30.333153 13.695011 0.000000 0.000000 0.000000 0.000000 0.000000 0.000000 -3.041403 0.067316 -0.150316 12.653113 5.763812 5.180163 -35.398188 -31.916245 -26.016020 -19.836725 27.278350 1.544353 0.000000 0.000000 0.000000 0.000000 0.000000 0.000000 4.929491 -0.137328 41.863155 0.242760 0.453880 0.299683 -1.844304 2.153514 0.361327 0.000000 0.000000 0.000000 0.719098 -1.095603 40.992366 2.817639 -0.182110 0.794129 -4.669008 15.477647 0.122432 0.000000 0.000000 0.000000
-15.394652 80.760246 275.925495 -2.999310 1.971968 -45.892419 -0.175393 -0.630550 45.803962 0.025513 -0.164773 -0.147989 3.555895 -1.477759 0.310162 0.000000 0.000000 0.000000 -3.782196 1.044194 2.393063 3.962275 9.333333 1.891184 -1.864771 -23.224650 -7.871135 -0.621562 29.238694 12.287238 0.000000 0.000000 0.000000 0.000000 0.000000 0.000000 -3.058799 -0.329971 -0.184806 11.750786 7.126644 4.522023 -33.132952 -27.279133 -21.857410 -14.428869 24.611489 -2.585295 0.000000 0.000000 0.000000 0.000000 0.000000 0.000000 5.227704 -0.685433 46.107758 1.498834 0.422640 0.280172 -2.740760 2.366018 2.339976 0.000000 0.000000 0.000000 1.479424 -1.034694 45.164509 2.948660 0.834716 0.726553 -5.055243 14.346241 -0.436741 0.000000 0.000000 0.000000
-15.665800 80.551367 275.689004 -3.336488 2.299449 -48.938954 -0.255194 -0.389614 48.868477 0.456208 -0.281767 -0.123440 5.272985 -3.474991 -0.061865 0.000000 0.000000 0.000000 -4.717246 1.052885 2.618682 5.105117 9.168032 1.997281 -1.400833 -24.140571 -7.255476 0.093189 28.778402 11.025982 0.000000 0.000000 0.000000 0.000000 0.000000 0.000000 -4.510111 -0.112095 -0.174805 12.569956 9.115950 4.314138 -31.255908 -23.521167 -18.687228 -4.292845 18.924736 -5.098615 0.000000 0.000000 0.000000 0.000000 0.000000 0.000000 5.708251 -0.737112 49.203315 1.999183 0.184251 0.345964 -3.656853 2.248524 6.014690 0.000000 0.000000 0.000000 1.693025 -1.069041 48.084720 3.794038 1.488253 0.718666 -4.070059 9.727186 0.389190 0.000000 0.000000 0.000000
-15.109279 80.786057 275.568235 -2.507597 2.443517 -53.126055 0.856820 0.093946 53.118826 0.333446 -0.057143 -0.056017 6.759540 -5.314563 -1.129169 0.000000 0.000000 0.000000 -5.553338 1.415249 2.341736 4.466860 9.310472 2.387008 -0.767450 -24.089099 -6.508058 -2.982656 28.949893 10.495464 0.000000 0.000000 0.000000 0.000000 0.000000 0.000000 -5.715049 0.174861 -0.214920 12.151653 9.452066 4.332971 -17.602411 -17.417197 -10.605720 -7.829649 6.799637 -7.960734 0.000000 0.000000 0.000000 0.000000 0.000000 0.000000 3.739685 -2.272850 53.527286 3.814617 -0.738806 0.296945 -3.780531 0.670274 11.438115 0.000000 0.000000 0.000000 1.314918 -1.739398 52.224091 4.278318 1.997153 0.631740 -1.718564 4.433741 3.242968 0.000000 0.000000 0.000000
-14.870160 80.872821 275.260694 -1.108974 2.297695 -57.150572 1.017005 0.331139 57.180442 0.684129 -0.192418 0.038144 8.469923 -7.664997 -2.086498 0.000000 0.000000 0.000000 -6.082361 1.508596 1.827638 3.269962 9.556884 2.804184 -0.504172 -23.328162 -6.060367 -6.221201 28.681268 10.115360 0.000000 0.000000 0.000000 0.000000 0.000000 0.000000 -7.639765 -0.095399 -0.548502 13.000162 8.853655 5.066271 -4.649819 -21.124935 -8.313592 -11.160480 2.563551 -2.114345 0.000000 0.000000 0.000000 0.000000 0.000000 0.000000 1.753876 -3.706759 57.554698 4.577922 -1.623255 0.306447 -3.308568 -1.806214 18.551602 0.000000 0.000000 0.000000 1.663540 -2.563433 56.787317 3.987272 3.164057 -0.097004 1.817092 -1.214531 7.839136 0.000000 0.000000 0.000000
-14.793615 80.964061 274.807638 0.927159 1.719407 -64.312158 1.594557 0.919226 64.411505 0.570310 0.005021 0.130591 10.373686 -10.401353 -3.101519 0.000000 0.000000 0.000000 -4.894783 2.126514 0.828622 1.631998 8.324922 3.796952 -2.032607 -22.378174 -5.806529 -9.237144 29.090883 9.228284 0.000000 0.000000 0.000000 0.000000 0.000000 0.000000 -6.883044 -3.475500 -1.550857 9.510741 13.926632 5.229576 2.006504 -20.901466 -5.821907 -11.979944 3.316897 0.834604 0.000000 0.000000 0.000000 0.000000 0.000000 0.000000 -0.533575 -5.756519 64.639447 5.057876 -2.490847 0.280283 -1.660475 -5.759008 28.652480 0.000000 0.000000 0.000000 2.504302 -3.288090 64.985032 2.944054 4.571280 -1.246277 6.080620 -5.780755 13.248615 0.000000 0.000000 0.000000
